<mxfile host="app.diagrams.net" modified="2021-10-14T14:05:24.665Z" agent="5.0 (Windows NT 10.0; Win64; x64) AppleWebKit/537.36 (KHTML, like Gecko) Chrome/94.0.4606.81 Safari/537.36" etag="eUjiDaKEZ7jeefZJgjT5" version="15.5.2" type="github">
  <diagram id="oCVk9OYgW9UAW5na9d_e" name="Page-1">
    <mxGraphModel dx="835" dy="603" grid="1" gridSize="10" guides="1" tooltips="1" connect="1" arrows="1" fold="1" page="1" pageScale="1" pageWidth="1654" pageHeight="1169" math="0" shadow="0">
      <root>
        <mxCell id="0" />
        <mxCell id="1" parent="0" />
        <mxCell id="GVSRyNa6ziFJZxKzF8Ie-6" style="edgeStyle=orthogonalEdgeStyle;rounded=0;orthogonalLoop=1;jettySize=auto;html=1;entryX=0;entryY=0.5;entryDx=0;entryDy=0;" edge="1" parent="1" source="GVSRyNa6ziFJZxKzF8Ie-2" target="GVSRyNa6ziFJZxKzF8Ie-5">
          <mxGeometry relative="1" as="geometry" />
        </mxCell>
        <mxCell id="GVSRyNa6ziFJZxKzF8Ie-2" value="Web Clients" style="rounded=0;whiteSpace=wrap;html=1;" vertex="1" parent="1">
          <mxGeometry x="200" y="200" width="80" height="280" as="geometry" />
        </mxCell>
        <mxCell id="GVSRyNa6ziFJZxKzF8Ie-4" style="edgeStyle=orthogonalEdgeStyle;rounded=0;orthogonalLoop=1;jettySize=auto;html=1;entryX=1.013;entryY=0.134;entryDx=0;entryDy=0;entryPerimeter=0;" edge="1" parent="1" source="GVSRyNa6ziFJZxKzF8Ie-3" target="GVSRyNa6ziFJZxKzF8Ie-2">
          <mxGeometry relative="1" as="geometry" />
        </mxCell>
        <mxCell id="GVSRyNa6ziFJZxKzF8Ie-3" value="Notifications&lt;br&gt;(Websocket)" style="whiteSpace=wrap;html=1;aspect=fixed;" vertex="1" parent="1">
          <mxGeometry x="400" y="160" width="80" height="80" as="geometry" />
        </mxCell>
        <mxCell id="GVSRyNa6ziFJZxKzF8Ie-11" style="edgeStyle=orthogonalEdgeStyle;rounded=0;orthogonalLoop=1;jettySize=auto;html=1;entryX=0.001;entryY=0.799;entryDx=0;entryDy=0;entryPerimeter=0;" edge="1" parent="1" source="GVSRyNa6ziFJZxKzF8Ie-5" target="GVSRyNa6ziFJZxKzF8Ie-8">
          <mxGeometry relative="1" as="geometry">
            <mxPoint x="590" y="340" as="targetPoint" />
            <Array as="points">
              <mxPoint x="540" y="320" />
              <mxPoint x="540" y="416" />
            </Array>
          </mxGeometry>
        </mxCell>
        <mxCell id="GVSRyNa6ziFJZxKzF8Ie-5" value="Ingress&lt;br&gt;(Create, Update, Delete)" style="whiteSpace=wrap;html=1;aspect=fixed;" vertex="1" parent="1">
          <mxGeometry x="400" y="280" width="80" height="80" as="geometry" />
        </mxCell>
        <mxCell id="GVSRyNa6ziFJZxKzF8Ie-9" style="edgeStyle=orthogonalEdgeStyle;rounded=0;orthogonalLoop=1;jettySize=auto;html=1;entryX=1;entryY=0.5;entryDx=0;entryDy=0;" edge="1" parent="1" source="GVSRyNa6ziFJZxKzF8Ie-8" target="GVSRyNa6ziFJZxKzF8Ie-3">
          <mxGeometry relative="1" as="geometry">
            <Array as="points">
              <mxPoint x="570" y="200" />
              <mxPoint x="570" y="200" />
            </Array>
          </mxGeometry>
        </mxCell>
        <mxCell id="GVSRyNa6ziFJZxKzF8Ie-15" style="edgeStyle=orthogonalEdgeStyle;rounded=0;orthogonalLoop=1;jettySize=auto;html=1;entryX=0;entryY=0.5;entryDx=0;entryDy=0;" edge="1" parent="1" source="GVSRyNa6ziFJZxKzF8Ie-8" target="GVSRyNa6ziFJZxKzF8Ie-12">
          <mxGeometry relative="1" as="geometry">
            <Array as="points">
              <mxPoint x="710" y="200" />
              <mxPoint x="710" y="200" />
            </Array>
          </mxGeometry>
        </mxCell>
        <mxCell id="GVSRyNa6ziFJZxKzF8Ie-16" style="edgeStyle=orthogonalEdgeStyle;rounded=0;orthogonalLoop=1;jettySize=auto;html=1;entryX=0;entryY=0.5;entryDx=0;entryDy=0;" edge="1" parent="1" source="GVSRyNa6ziFJZxKzF8Ie-8" target="GVSRyNa6ziFJZxKzF8Ie-13">
          <mxGeometry relative="1" as="geometry">
            <Array as="points">
              <mxPoint x="740" y="270" />
              <mxPoint x="740" y="320" />
            </Array>
          </mxGeometry>
        </mxCell>
        <mxCell id="GVSRyNa6ziFJZxKzF8Ie-17" style="edgeStyle=orthogonalEdgeStyle;rounded=0;orthogonalLoop=1;jettySize=auto;html=1;entryX=0;entryY=0.5;entryDx=0;entryDy=0;" edge="1" parent="1" source="GVSRyNa6ziFJZxKzF8Ie-8" target="GVSRyNa6ziFJZxKzF8Ie-14">
          <mxGeometry relative="1" as="geometry">
            <Array as="points">
              <mxPoint x="740" y="340" />
              <mxPoint x="740" y="440" />
            </Array>
          </mxGeometry>
        </mxCell>
        <mxCell id="GVSRyNa6ziFJZxKzF8Ie-8" value="PubSub" style="rounded=0;whiteSpace=wrap;html=1;" vertex="1" parent="1">
          <mxGeometry x="600" y="160" width="80" height="320" as="geometry" />
        </mxCell>
        <mxCell id="GVSRyNa6ziFJZxKzF8Ie-18" style="edgeStyle=orthogonalEdgeStyle;rounded=0;orthogonalLoop=1;jettySize=auto;html=1;entryX=1;entryY=0.75;entryDx=0;entryDy=0;" edge="1" parent="1" source="GVSRyNa6ziFJZxKzF8Ie-12" target="GVSRyNa6ziFJZxKzF8Ie-2">
          <mxGeometry relative="1" as="geometry">
            <Array as="points">
              <mxPoint x="920" y="200" />
              <mxPoint x="920" y="520" />
              <mxPoint x="400" y="520" />
              <mxPoint x="400" y="410" />
            </Array>
          </mxGeometry>
        </mxCell>
        <mxCell id="GVSRyNa6ziFJZxKzF8Ie-12" value="Users" style="whiteSpace=wrap;html=1;aspect=fixed;" vertex="1" parent="1">
          <mxGeometry x="800" y="160" width="80" height="80" as="geometry" />
        </mxCell>
        <mxCell id="GVSRyNa6ziFJZxKzF8Ie-19" style="edgeStyle=orthogonalEdgeStyle;rounded=0;orthogonalLoop=1;jettySize=auto;html=1;entryX=1;entryY=0.786;entryDx=0;entryDy=0;entryPerimeter=0;" edge="1" parent="1" source="GVSRyNa6ziFJZxKzF8Ie-13" target="GVSRyNa6ziFJZxKzF8Ie-2">
          <mxGeometry relative="1" as="geometry">
            <Array as="points">
              <mxPoint x="930" y="320" />
              <mxPoint x="930" y="530" />
              <mxPoint x="390" y="530" />
              <mxPoint x="390" y="420" />
              <mxPoint x="290" y="420" />
            </Array>
          </mxGeometry>
        </mxCell>
        <mxCell id="GVSRyNa6ziFJZxKzF8Ie-13" value="Workplaces" style="whiteSpace=wrap;html=1;aspect=fixed;" vertex="1" parent="1">
          <mxGeometry x="800" y="280" width="80" height="80" as="geometry" />
        </mxCell>
        <mxCell id="GVSRyNa6ziFJZxKzF8Ie-20" style="edgeStyle=orthogonalEdgeStyle;rounded=0;orthogonalLoop=1;jettySize=auto;html=1;" edge="1" parent="1" source="GVSRyNa6ziFJZxKzF8Ie-14">
          <mxGeometry relative="1" as="geometry">
            <mxPoint x="280" y="430" as="targetPoint" />
            <Array as="points">
              <mxPoint x="940" y="440" />
              <mxPoint x="940" y="540" />
              <mxPoint x="380" y="540" />
              <mxPoint x="380" y="430" />
            </Array>
          </mxGeometry>
        </mxCell>
        <mxCell id="GVSRyNa6ziFJZxKzF8Ie-14" value="Todos" style="whiteSpace=wrap;html=1;aspect=fixed;" vertex="1" parent="1">
          <mxGeometry x="800" y="400" width="80" height="80" as="geometry" />
        </mxCell>
      </root>
    </mxGraphModel>
  </diagram>
</mxfile>
